0
SECTION
2
HEADER
9
$INSUNITS
70
4
9
$ACADVER
1
AC1014
9
$HANDSEED
5
FFFF
0
ENDSEC
0
SECTION
2
TABLES
0
TABLE
2
VPORT
5
8
100
AcDbSymbolTable
0
ENDTAB
0
TABLE
2
LTYPE
5
5
100
AcDbSymbolTable
0
LTYPE
5
14
100
AcDbSymbolTableRecord
100
AcDbLinetypeTableRecord
2
BYBLOCK
70
0
0
LTYPE
5
15
100
AcDbSymbolTableRecord
100
AcDbLinetypeTableRecord
2
BYLAYER
70
0
0
ENDTAB
0
TABLE
2
LAYER
5
2
100
AcDbSymbolTable
70
2
0
LAYER
5
50
100
AcDbSymbolTableRecord
100
AcDbLayerTableRecord
2
0
70
0
6
CONTINUOUS
0
ENDTAB
0
TABLE
2
STYLE
5
3
100
AcDbSymbolTable
70
1
0
STYLE
5
11
100
AcDbSymbolTableRecord
100
AcDbTextStyleTableRecord
2
STANDARD
70
0
0
ENDTAB
0
TABLE
2
VIEW
5
6
100
AcDbSymbolTable
70
0
0
ENDTAB
0
TABLE
2
UCS
5
7
100
AcDbSymbolTable
70
0
0
ENDTAB
0
TABLE
2
APPID
5
9
100
AcDbSymbolTable
70
2
0
APPID
5
12
100
AcDbSymbolTableRecord
100
AcDbRegAppTableRecord
2
ACAD
70
0
0
ENDTAB
0
TABLE
2
DIMSTYLE
5
A
100
AcDbSymbolTable
70
1
0
ENDTAB
0
TABLE
2
BLOCK_RECORD
5
1
100
AcDbSymbolTable
70
1
0
BLOCK_RECORD
5
1F
100
AcDbSymbolTableRecord
100
AcDbBlockTableRecord
2
*MODEL_SPACE
0
BLOCK_RECORD
5
1B
100
AcDbSymbolTableRecord
100
AcDbBlockTableRecord
2
*PAPER_SPACE
0
ENDTAB
0
ENDSEC
0
SECTION
2
BLOCKS
0
BLOCK
5
20
100
AcDbEntity
100
AcDbBlockBegin
2
*MODEL_SPACE
0
ENDBLK
5
21
100
AcDbEntity
100
AcDbBlockEnd
0
BLOCK
5
1C
100
AcDbEntity
100
AcDbBlockBegin
2
*PAPER_SPACE
0
ENDBLK
5
1D
100
AcDbEntity
100
AcDbBlockEnd
0
ENDSEC
0
SECTION
2
ENTITIES
0
LWPOLYLINE
5
100
100
AcDbEntity
8
0
100
AcDbPolyline
90
24
70
1
43
0.0
10
92.172542201141766
20
-0.76485189290772426
10
93.972542201141863
20
-0.76485189290772426
10
93.972542201141863
20
-5.7648518929077222
10
92.172542201141766
20
-5.7648518929077222
42
0.414213562373069
10
91.972542201141763
20
-5.9648518929077179
10
91.972542201141906
20
-28.554369244152774
42
0.41421356237309503
10
92.172542201141908
20
-28.754369244152787
10
93.972542201141906
20
-28.75436924415277
10
93.972542201141863
20
-30.554369244152785
42
0.41421356237312101
10
94.172542201141866
20
-30.75436924415278
10
114.78955544298705
20
-30.754369244152798
42
0.52056705055172137
10
114.97749396714423
20
-30.485965215487646
10
113.98072058569333
20
-27.747352857637871
10
115.67216730310797
20
-27.131716599651657
42
0.41421356237308615
10
115.79170179860002
20
-26.875374046829346
10
114.35521719663221
20
-22.928665039528546
42
0.41421356237310392
10
114.09887464380989
20
-22.809130544036496
10
112.40742792639526
20
-23.42476680202271
10
94.36048072529907
20
26.158813123078957
42
0.83909963117728037
10
93.972542201141891
20
26.090409094413829
10
93.972542201141891
20
22.224665458337363
10
92.172542201141766
20
22.224665458337363
42
0.41421356237309503
10
91.972542201141763
20
22.024665458337374
10
91.972542201141763
20
-0.56485189290772853
42
0.414213562373069
0
CIRCLE
5
101
100
AcDbEntity
8
0
100
AcDbCircle
10
103.44142766819806
20
-21.084196073854642
30
0
40
1.6000000000000014
210
-0
220
0
230
1
0
CIRCLE
5
102
100
AcDbEntity
8
0
100
AcDbCircle
10
99.334490220628311
20
-0.13120502054715974
30
0
40
1.6000000000000001
210
-0
220
0
230
1
0
LWPOLYLINE
5
103
100
AcDbEntity
8
0
100
AcDbPolyline
90
24
70
1
43
0.0
10
122.17254220114178
20
1.8351481070922826
42
0.414213562373069
10
122.37254220114178
20
2.0351481070922781
10
122.37254220114164
20
24.62466545833734
42
0.41421356237309503
10
122.17254220114164
20
24.82466545833735
10
120.37254220114164
20
24.824665458337336
10
120.37254220114167
20
26.624665458337343
42
0.41421356237312101
10
120.17254220114168
20
26.824665458337339
10
99.555528959296495
20
26.82466545833735
42
0.52056705055172137
10
99.36759043513932
20
26.556261429672197
10
100.36436381659021
20
23.817649071822427
10
98.672917099175578
20
23.202012813836213
42
0.41421356237308615
10
98.553382603683531
20
22.945670261013902
10
99.989867205651336
20
18.998961253713102
42
0.41421356237310392
10
100.24620975847364
20
18.879426758221051
10
101.93765647588828
20
19.495063016207265
10
119.98460367698448
20
-30.088516908894395
42
0.83909963117728037
10
120.37254220114166
20
-30.020112880229263
10
120.37254220114166
20
-26.154369244152797
10
122.17254220114178
20
-26.154369244152797
42
0.41421356237309503
10
122.37254220114178
20
-25.954369244152812
10
122.37254220114178
20
-3.3648518929077098
42
0.414213562373069
10
122.17254220114178
20
-3.1648518929077145
10
120.37254220114167
20
-3.1648518929077167
10
120.37254220114167
20
1.8351481070922826
0
CIRCLE
5
104
100
AcDbEntity
8
0
100
AcDbCircle
10
110.90365673408549
20
17.154492288039201
30
0
40
1.6000000000000014
210
0
220
0
230
1
0
CIRCLE
5
105
100
AcDbEntity
8
0
100
AcDbCircle
10
115.01059418165524
20
-3.7984987652682811
30
0
40
1.6000000000000001
210
0
220
0
230
1
0
LWPOLYLINE
5
106
100
AcDbEntity
8
0
100
AcDbPolyline
90
16
70
1
43
0.0
10
128.14007214131098
20
-25.958188782773682
10
132.84717892249751
20
-30.665295563960228
42
0.19891236737966295
10
133.20073231309081
20
-30.811742173366952
10
206.78651875071756
20
-30.811742173366948
42
0.19891236737966941
10
207.14007214131087
20
-30.665295563960232
10
211.84717892249745
20
-25.958188782773686
42
0.19891236737965082
10
211.99362553190417
20
-25.604635392180413
10
211.99362553190417
20
23.960185747936652
42
0.19891236737964849
10
211.84717892249745
20
24.313739138529922
10
207.14007214131087
20
29.020845919716471
42
0.198912367379627
10
206.78651875071756
20
29.167292529123191
10
133.20073231309078
20
29.167292529123191
42
0.1989123673796537
10
132.84717892249751
20
29.020845919716457
10
128.14007214131098
20
24.313739138529925
42
0.19891236737965312
10
127.99362553190427
20
23.960185747936649
10
127.99362553190427
20
-25.60463539218042
42
0.1989123673796446
0
LWPOLYLINE
5
107
100
AcDbEntity
8
0
100
AcDbPolyline
90
4
70
1
43
0.0
10
194.79362553190415
20
-26.511742173366972
10
194.79362553190415
20
-3.1222248221219169
10
197.19362553190419
20
-3.1222248221219169
10
197.19362553190419
20
-26.511742173366969
0
LWPOLYLINE
5
108
100
AcDbEntity
8
0
100
AcDbPolyline
90
4
70
1
43
0.0
10
142.79362553190424
20
24.867292529123148
10
145.19362553190422
20
24.867292529123148
10
145.19362553190422
20
1.4777751778780872
10
142.79362553190424
20
1.4777751778780863
0
LWPOLYLINE
5
109
100
AcDbEntity
8
0
100
AcDbPolyline
90
4
70
1
43
0.0
10
194.79362553190415
20
24.867292529123148
10
197.19362553190419
20
24.867292529123148
10
197.19362553190419
20
1.4777751778780877
10
194.79362553190415
20
1.4777751778780865
0
LWPOLYLINE
5
110
100
AcDbEntity
8
0
100
AcDbPolyline
90
4
70
1
43
0.0
10
142.79362553190424
20
-26.511742173366972
10
142.79362553190424
20
-3.1222248221219169
10
145.19362553190422
20
-3.1222248221219169
10
145.19362553190422
20
-26.511742173366969
0
LWPOLYLINE
5
111
100
AcDbEntity
8
0
100
AcDbPolyline
90
24
70
1
43
0.0
10
110.075
20
95.925000000000011
10
110.075
20
92.475000000000009
42
-0.41421356237309503
10
108.575
20
90.974999999999994
10
93.774999999999991
20
90.97499999999998
42
-0.41421356237308815
10
92.275000000000006
20
92.475000000000009
10
92.275000000000006
20
95.924999999999997
42
0.41421356237309503
10
91.775000000000006
20
96.424999999999983
10
89.108095244168751
20
96.424999999999983
42
0.19891236737963572
10
88.754541853575532
20
96.278553390593288
10
86.921446609406715
20
94.445458146424471
42
0.19891236737963566
10
86.775000000000006
20
94.091904755831195
10
86.774999999999977
20
35.058095244164065
42
0.19891236737964521
10
86.921446609406686
20
34.704541853570838
10
88.754541853575489
20
32.871446609402035
42
0.19891236737965803
10
89.108095244168751
20
32.724999999995326
10
113.24190475582581
20
32.72499999999458
42
0.19891236737961948
10
113.59545814641903
20
32.871446609401318
10
115.42855339059328
20
34.704541853575549
42
0.19891236737964754
10
115.57499999999999
20
35.058095244168832
10
115.57500000000002
20
94.091904755831195
42
0.19891236737965146
10
115.42855339059328
20
94.4454581464245
10
113.59545814642446
20
96.278553390593302
42
0.19891236737964224
10
113.24190475583123
20
96.425000000000011
10
110.57499999999999
20
96.425000000000011
42
0.41421356237309503
0
CIRCLE
5
112
100
AcDbEntity
8
0
100
AcDbCircle
10
89.524999999999736
20
93.159924240491733
30
0
40
1.0999999999999943
210
0
220
0
230
1
0
CIRCLE
5
113
100
AcDbEntity
8
0
100
AcDbCircle
10
113.16850288425204
20
35.131497115743215
30
0
40
1.0999999999999985
210
0
220
0
230
1
0
CIRCLE
5
114
100
AcDbEntity
8
0
100
AcDbCircle
10
112.825
20
93.159924240491733
30
0
40
1.0999999999999985
210
0
220
0
230
1
0
CIRCLE
5
115
100
AcDbEntity
8
0
100
AcDbCircle
10
89.181497115743213
20
35.131497115743215
30
0
40
1.0999999999999943
210
0
220
0
230
1
0
LWPOLYLINE
5
116
100
AcDbEntity
8
0
100
AcDbPolyline
90
16
70
1
43
0.0
10
212.95256492761104
20
33.164339828220179
10
214.7856601717798
20
34.997435072388924
42
0.19891236737966464
10
215.22500000000002
20
36.058095244168776
10
215.22500000000002
20
95.091904755831422
42
0.19891236737966234
10
214.7856601717798
20
96.152564927611266
10
212.95256492761123
20
97.985660171779827
42
0.19891256315463954
10
211.891903625889
20
98.424999999999585
10
123.05809524416881
20
98.42500000000004
42
0.19891236737965065
10
121.997435072389
20
97.98566017177987
10
120.16433982822015
20
96.152564927611024
42
0.19891236737966236
10
119.72499999999998
20
95.091904755831223
10
119.72499999999998
20
36.05809524416879
42
0.19891236737965623
10
120.16433982822019
20
34.99743507238896
10
121.99743507238895
20
33.164339828220172
42
0.19891236737965856
10
123.0580952441688
20
32.72499999999998
10
211.89190475583121
20
32.724999999999994
42
0.19891236737965473
0
LWPOLYLINE
5
117
100
AcDbEntity
8
0
100
AcDbPolyline
90
4
70
1
43
0.0
10
142.72499999999999
20
37.724999999999994
10
140.22499999999999
20
37.724999999999994
10
140.22499999999999
20
42.724999999999994
10
142.72499999999999
20
42.724999999999994
0
LWPOLYLINE
5
118
100
AcDbEntity
8
0
100
AcDbPolyline
90
4
70
1
43
0.0
10
194.72499999999999
20
42.724999999999994
10
194.72499999999999
20
37.724999999999994
10
192.22499999999999
20
37.724999999999994
10
192.22499999999999
20
42.724999999999994
0
CIRCLE
5
119
100
AcDbEntity
8
0
100
AcDbCircle
10
212.52560966544098
20
95.725609665437901
30
0
40
1.1000000000000032
210
0
220
0
230
1
0
CIRCLE
5
120
100
AcDbEntity
8
0
100
AcDbCircle
10
122.42439033455901
20
95.725609665437901
30
0
40
1.0999999999999985
210
0
220
0
230
1
0
CIRCLE
5
121
100
AcDbEntity
8
0
100
AcDbCircle
10
212.52560966544098
20
35.424390334559014
30
0
40
1.1000000000000032
210
0
220
0
230
1
0
CIRCLE
5
122
100
AcDbEntity
8
0
100
AcDbCircle
10
122.42439033455901
20
35.424390334559014
30
0
40
1.0999999999999985
210
0
220
0
230
1
0
ENDSEC
0
SECTION
2
OBJECTS
0
DICTIONARY
5
C
100
AcDbDictionary
3
ACAD_GROUP
350
D
3
ACAD_MLINESTYLE
350
17
0
DICTIONARY
5
D
100
AcDbDictionary
0
DICTIONARY
5
1A
330
C
100
AcDbDictionary
0
DICTIONARY
5
17
100
AcDbDictionary
0
ENDSEC
0
EOF
