0
SECTION
2
HEADER
9
$INSUNITS
70
4
9
$ACADVER
1
AC1014
9
$HANDSEED
5
FFFF
0
ENDSEC
0
SECTION
2
TABLES
0
TABLE
2
VPORT
5
8
100
AcDbSymbolTable
0
ENDTAB
0
TABLE
2
LTYPE
5
5
100
AcDbSymbolTable
0
LTYPE
5
14
100
AcDbSymbolTableRecord
100
AcDbLinetypeTableRecord
2
BYBLOCK
70
0
0
LTYPE
5
15
100
AcDbSymbolTableRecord
100
AcDbLinetypeTableRecord
2
BYLAYER
70
0
0
ENDTAB
0
TABLE
2
LAYER
5
2
100
AcDbSymbolTable
70
2
0
LAYER
5
50
100
AcDbSymbolTableRecord
100
AcDbLayerTableRecord
2
0
70
0
6
CONTINUOUS
0
ENDTAB
0
TABLE
2
STYLE
5
3
100
AcDbSymbolTable
70
1
0
STYLE
5
11
100
AcDbSymbolTableRecord
100
AcDbTextStyleTableRecord
2
STANDARD
70
0
0
ENDTAB
0
TABLE
2
VIEW
5
6
100
AcDbSymbolTable
70
0
0
ENDTAB
0
TABLE
2
UCS
5
7
100
AcDbSymbolTable
70
0
0
ENDTAB
0
TABLE
2
APPID
5
9
100
AcDbSymbolTable
70
2
0
APPID
5
12
100
AcDbSymbolTableRecord
100
AcDbRegAppTableRecord
2
ACAD
70
0
0
ENDTAB
0
TABLE
2
DIMSTYLE
5
A
100
AcDbSymbolTable
70
1
0
ENDTAB
0
TABLE
2
BLOCK_RECORD
5
1
100
AcDbSymbolTable
70
1
0
BLOCK_RECORD
5
1F
100
AcDbSymbolTableRecord
100
AcDbBlockTableRecord
2
*MODEL_SPACE
0
BLOCK_RECORD
5
1B
100
AcDbSymbolTableRecord
100
AcDbBlockTableRecord
2
*PAPER_SPACE
0
ENDTAB
0
ENDSEC
0
SECTION
2
BLOCKS
0
BLOCK
5
20
100
AcDbEntity
100
AcDbBlockBegin
2
*MODEL_SPACE
0
ENDBLK
5
21
100
AcDbEntity
100
AcDbBlockEnd
0
BLOCK
5
1C
100
AcDbEntity
100
AcDbBlockBegin
2
*PAPER_SPACE
0
ENDBLK
5
1D
100
AcDbEntity
100
AcDbBlockEnd
0
ENDSEC
0
SECTION
2
ENTITIES
0
LWPOLYLINE
5
100
100
AcDbEntity
8
0
100
AcDbPolyline
90
8
70
1
43
0.0
10
-5.9250000000000025
20
14.475000000000001
10
7.0750000000000002
20
14.475000000000001
42
0.41421356237309631
10
7.5750000000000028
20
14.975000000000003
10
7.5750000000000028
20
27.975000000000001
42
0.41421356237309503
10
7.0750000000000002
20
28.475000000000001
10
-5.9250000000000025
20
28.475000000000001
42
0.41421356237309503
10
-6.4250000000000007
20
27.975000000000001
10
-6.4250000000000007
20
14.975000000000003
42
0.41421356237309631
0
LWPOLYLINE
5
101
100
AcDbEntity
8
0
100
AcDbPolyline
90
8
70
1
43
0.0
10
-5.9250000000000025
20
-9.625
10
7.0750000000000002
20
-9.6249999999999947
42
-0.41421356237309503
10
7.5750000000000028
20
-10.124999999999996
10
7.5749999999999984
20
-23.125000000000004
42
-0.41421356237309503
10
7.0750000000000002
20
-23.625000000000004
10
-5.9250000000000025
20
-23.625000000000004
42
-0.41421356237309503
10
-6.4250000000000007
20
-23.125000000000004
10
-6.4250000000000007
20
-10.124999999999996
42
-0.41421356237309503
0
LWPOLYLINE
5
102
100
AcDbEntity
8
0
100
AcDbPolyline
90
8
70
1
43
0.0
10
12.624999999999996
20
14.975000000000003
42
0.41421356237309631
10
13.124999999999996
20
14.475000000000001
10
26.125000000000004
20
14.475000000000001
42
0.41421356237309631
10
26.625
20
14.975000000000003
10
26.625
20
27.975000000000001
42
0.41421356237309503
10
26.125000000000004
20
28.475000000000001
10
13.124999999999996
20
28.475000000000001
42
0.41421356237309503
10
12.624999999999996
20
27.975000000000001
0
LWPOLYLINE
5
103
100
AcDbEntity
8
0
100
AcDbPolyline
90
8
70
1
43
0.0
10
-25.475000000000001
20
27.975000000000001
10
-25.475000000000001
20
14.975000000000003
42
0.41421356237309631
10
-24.975000000000005
20
14.475000000000001
10
-11.975000000000005
20
14.475000000000001
42
0.41421356237309764
10
-11.475000000000005
20
14.975000000000003
10
-11.475000000000005
20
27.975000000000001
42
0.41421356237309631
10
-11.975000000000005
20
28.475000000000001
10
-24.975000000000005
20
28.475000000000001
42
0.41421356237309503
0
LWPOLYLINE
5
104
100
AcDbEntity
8
0
100
AcDbPolyline
90
8
70
1
43
0.0
10
-24.975000000000005
20
-4.5750000000000046
10
-11.975000000000005
20
-4.5750000000000046
42
0.41421356237309631
10
-11.475000000000005
20
-4.075000000000002
10
-11.475000000000005
20
8.9250000000000007
42
0.41421356237309631
10
-11.975000000000005
20
9.4249999999999989
10
-24.975000000000005
20
9.4249999999999989
42
0.41421356237309503
10
-25.475000000000001
20
8.9250000000000007
10
-25.475000000000001
20
-4.075000000000002
42
0.41421356237309503
0
LWPOLYLINE
5
105
100
AcDbEntity
8
0
100
AcDbPolyline
90
8
70
1
43
0.0
10
26.125000000000004
20
-23.625000000000004
42
0.41421356237309503
10
26.625
20
-23.125000000000004
10
26.625
20
-10.124999999999996
42
0.41421356237309503
10
26.125000000000004
20
-9.625
10
13.124999999999996
20
-9.625
42
0.41421356237309503
10
12.624999999999996
20
-10.124999999999996
10
12.624999999999996
20
-23.125000000000004
42
0.41421356237309503
10
13.124999999999996
20
-23.625000000000004
0
LWPOLYLINE
5
106
100
AcDbEntity
8
0
100
AcDbPolyline
90
8
70
1
43
0.0
10
-25.475000000000001
20
-23.125000000000004
42
0.41421356237309503
10
-24.975000000000005
20
-23.625000000000004
10
-11.975000000000005
20
-23.625000000000004
42
0.41421356237309631
10
-11.475000000000005
20
-23.125000000000004
10
-11.475000000000005
20
-10.124999999999996
42
0.41421356237309631
10
-11.975000000000005
20
-9.625
10
-24.975000000000005
20
-9.625
42
0.41421356237309503
10
-25.475000000000001
20
-10.124999999999996
0
LWPOLYLINE
5
107
100
AcDbEntity
8
0
100
AcDbPolyline
90
8
70
1
43
0.0
10
13.124999999999996
20
9.4249999999999989
42
0.41421356237309503
10
12.624999999999996
20
8.9250000000000007
10
12.624999999999996
20
-4.075000000000002
42
0.41421356237309503
10
13.124999999999996
20
-4.5750000000000046
10
26.125000000000004
20
-4.5750000000000046
42
0.41421356237309503
10
26.625
20
-4.075000000000002
10
26.625
20
8.9250000000000007
42
0.41421356237309503
10
26.125000000000004
20
9.4249999999999989
0
LWPOLYLINE
5
108
100
AcDbEntity
8
0
100
AcDbPolyline
90
8
70
1
43
0.0
10
-6.4250000000000007
20
-4.075000000000002
42
0.41421356237309503
10
-5.9250000000000025
20
-4.5750000000000046
10
7.0750000000000002
20
-4.5750000000000046
42
0.41421356237309503
10
7.5750000000000028
20
-4.075000000000002
10
7.5750000000000028
20
8.9250000000000007
42
0.41421356237309503
10
7.0750000000000002
20
9.4249999999999989
10
-5.9250000000000025
20
9.4249999999999989
42
0.41421356237309503
10
-6.4250000000000007
20
8.9250000000000007
0
CIRCLE
5
109
100
AcDbEntity
8
0
100
AcDbCircle
10
-29.575609665440989
20
-27.725609665437887
30
0
40
1.1000000000000001
210
0
220
0
230
1
0
CIRCLE
5
110
100
AcDbEntity
8
0
100
AcDbCircle
10
-29.575609665440989
20
32.575609665440986
30
0
40
1.1000000000000001
210
0
220
0
230
1
0
CIRCLE
5
111
100
AcDbEntity
8
0
100
AcDbCircle
10
30.725609665444086
20
32.575609665440986
30
0
40
1.1000000000000001
210
0
220
0
230
1
0
CIRCLE
5
112
100
AcDbEntity
8
0
100
AcDbCircle
10
30.72560966544409
20
-27.725609665437887
30
0
40
1.1000000000000001
210
0
220
0
230
1
0
LWPOLYLINE
5
113
100
AcDbEntity
8
0
100
AcDbPolyline
90
20
70
1
43
0.0
10
-28.245710678118662
20
30.132716446627526
10
-27.132716446627533
20
31.245710678118659
42
-0.19891236737965801
10
-27.06200576850889
20
31.274999999999999
10
-6.4250000000000007
20
31.274999999999995
42
0.66817863791929888
10
-6.3542893218813479
20
31.445710678118644
10
-7.7548989873223517
20
32.846320343559647
42
0.19891236737966009
10
-7.8256096654409957
20
32.875609665440983
10
-27.475609665440956
20
32.875609665440983
42
0.41421356237309503
10
-27.575609665440986
20
32.775609665440953
10
-27.575609665440986
20
31.788603896932109
42
-0.19891236737965801
10
-27.604898987322333
20
31.717893218813455
10
-28.717893218813458
20
30.604898987322326
42
-0.19891236737965801
10
-28.788603896932109
20
30.575609665440982
10
-29.775609665440996
20
30.575609665440982
42
0.41421356237309503
10
-29.87560966544099
20
30.475609665440984
10
-29.875609665440997
20
10.825609665440997
42
0.19891236737964987
10
-29.846320343559661
20
10.754898987322361
10
-28.445710678118665
20
9.3542893218813443
42
0.66817863791930465
10
-28.275000000000006
20
9.4249999999999989
10
-28.275000000000006
20
30.062005768508882
42
-0.19891236737965801
0
LWPOLYLINE
5
114
100
AcDbEntity
8
0
100
AcDbPolyline
90
20
70
1
43
0.0
10
28.282716446627663
20
31.245710678118641
10
29.39571067811881
20
30.132716446627498
42
-0.19891236737965465
10
29.425000000000161
20
30.06200576850884
10
29.425000000000153
20
9.4249999999999989
42
0.66817863791929888
10
29.595710678118806
20
9.3542893218813461
10
30.996320343562751
20
10.754898987325285
42
0.19891236737965803
10
31.02560966544409
20
10.825609665443935
10
31.02560966544408
20
30.475609665440984
42
0.41421356237309503
10
30.925609665444082
20
30.575609665440982
10
29.938603896935213
20
30.575609665440982
42
-0.19891236737965801
10
29.867893218816551
20
30.604898987322326
10
28.754898987325429
20
31.717893218813447
42
-0.19891236737965801
10
28.725609665444086
20
31.788603896932109
10
28.725609665444086
20
32.775609665440982
42
0.41421356237309503
10
28.625609665444088
20
32.875609665440976
10
8.9756096654409774
20
32.875609665440983
42
0.19891236737966009
10
8.904898987322337
20
32.846320343559647
10
7.5042893218813456
20
31.445710678118651
42
0.66817863791929888
10
7.5750000000000028
20
31.274999999999991
10
28.212005768509009
20
31.274999999999984
42
-0.19891236737966619
0
LWPOLYLINE
5
115
100
AcDbEntity
8
0
100
AcDbPolyline
90
20
70
1
43
0.0
10
29.39571067811865
20
-25.28271644662755
10
28.282716446627539
20
-26.395710678118654
42
-0.19891236737965801
10
28.212005768508885
20
-26.425000000000001
10
7.5750000000000028
20
-26.425000000000001
42
0.66817863791930177
10
7.5042893218813465
20
-26.59571067811866
10
8.9048989873192337
20
-27.996320343556548
42
0.19891236737965803
10
8.9756096654378741
20
-28.025609665437887
10
28.625609665444092
20
-28.025609665437891
42
0.41421356237309503
10
28.72560966544409
20
-27.925609665437893
10
28.72560966544409
20
-26.938603896929003
42
-0.19891236737965801
10
28.754898987325433
20
-26.867893218810348
10
29.867893218816558
20
-25.754898987319219
42
-0.19891236737965801
10
29.938603896935199
20
-25.725609665437883
10
30.925609665444107
20
-25.725609665437883
42
0.41421356237309503
10
31.025609665444101
20
-25.625609665437885
10
31.025609665444094
20
-5.975609665444134
42
0.19891236737966009
10
30.996320343562754
20
-5.9048989873254936
10
29.595710678118611
20
-4.5042893218813518
42
0.66817863791929888
10
29.424999999999962
20
-4.5750000000000046
10
29.42499999999999
20
-25.212005768508909
42
-0.19891236737964646
0
LWPOLYLINE
5
116
100
AcDbEntity
8
0
100
AcDbPolyline
90
20
70
1
43
0.0
10
-27.132716446627544
20
-26.395710678118654
10
-28.245710678118655
20
-25.282716446627539
42
-0.19891236737968593
10
-28.275000000000002
20
-25.212005768508888
10
-28.275000000000002
20
-4.5750000000000046
42
0.66817863791929755
10
-28.445710678118651
20
-4.5042893218813509
10
-29.846320343559661
20
-5.9048989873223618
42
0.19891236737965803
10
-29.875609665440997
20
-5.9756096654409934
10
-29.875609665441001
20
-25.625609665437885
42
0.41421356237309503
10
-29.775609665441003
20
-25.725609665437883
10
-28.788603896932106
20
-25.725609665437883
42
-0.19891236737966619
10
-28.717893218813444
20
-25.754898987319233
10
-27.428122292025698
20
-27.044669914106994
42
-0.19891236737965801
10
-27.398832970144351
20
-27.115380592225648
10
-27.39883297014099
20
-27.925609665437882
42
0.41421356237309503
10
-27.298832970140992
20
-28.025609665437877
10
-7.8256096654378728
20
-28.025609665437884
42
0.1989123673796539
10
-7.7548989873192351
20
-27.996320343556548
10
-6.354289321881347
20
-26.595710678118657
42
0.66817863791929599
10
-6.4250000000000007
20
-26.425000000000004
10
-27.062005768508897
20
-26.425000000000001
42
-0.19891236737967438
0
LWPOLYLINE
5
117
100
AcDbEntity
8
0
100
AcDbPolyline
90
16
70
1
43
0.0
10
32.72560966544409
20
33.221194077712553
10
32.725609665444082
20
-28.371194077709458
42
-0.19891236737965801
10
32.696320343562732
20
-28.441904755828119
10
31.44190475583429
20
-29.69632034355655
42
-0.19891236737965801
10
31.371194077715629
20
-29.725609665437894
10
-30.221194077712553
20
-29.72560966543789
42
-0.19891236737965801
10
-30.291904755831208
20
-29.696320343556547
10
-31.546320343559657
20
-28.441904755828098
42
-0.19891236737965801
10
-31.575609665441
20
-28.371194077709447
10
-31.575609665440993
20
33.221194077712553
42
-0.19891236737965801
10
-31.54632034355965
20
33.291904755831197
10
-30.291904755831212
20
34.546320343559643
42
-0.19891236737965801
10
-30.22119407771255
20
34.575609665440986
10
31.371194077715678
20
34.575609665440979
42
-0.19891236737965801
10
31.441904755834315
20
34.546320343559643
10
32.696320343562746
20
33.291904755831212
42
-0.19891236737965801
0
LWPOLYLINE
5
118
100
AcDbEntity
8
0
100
AcDbPolyline
90
8
70
1
43
0.0
10
29.454289321881362
20
6.8087049096096441
10
30.854898987325448
20
8.20931457505373
42
-0.66817863791929322
10
31.02560966544409
20
8.1386038969350789
10
31.025609665444097
20
-3.288603896935312
42
-0.66817863791929755
10
30.85489898732547
20
-3.3593145750539573
10
29.454289321881305
20
-1.9587049096097857
42
-0.19891236737963006
10
29.424999999999969
20
-1.8879942314911469
10
29.425000000000026
20
6.7379942314910064
42
-0.19891236737965304
0
LWPOLYLINE
5
119
100
AcDbEntity
8
0
100
AcDbPolyline
90
8
70
1
43
0.0
10
4.9587049096097626
20
-26.45428932188134
10
6.3593145750476587
20
-27.854898987319228
42
-0.66817863791929055
10
6.2886038969290006
20
-28.025609665437884
10
-5.1386038969290118
20
-28.025609665437884
42
-0.66817863791930177
10
-5.2093145750476637
20
-27.854898987319231
10
-3.8087049096097725
20
-26.45428932188134
42
-0.1989123673796572
10
-3.7379942314911316
20
-26.425000000000001
10
4.8879942314911222
20
-26.425000000000001
42
-0.19891236737965801
0
LWPOLYLINE
5
120
100
AcDbEntity
8
0
100
AcDbPolyline
90
8
70
1
43
0.0
10
-28.304289321881342
20
6.8087049096097454
10
-29.704898987322345
20
8.209314575050751
42
0.66817863791929599
10
-29.875609665440997
20
8.1386038969320964
10
-29.87560966544099
20
-3.2886038969321021
42
0.66817863791930465
10
-29.704898987322323
20
-3.3593145750507611
10
-28.304289321881342
20
-1.9587049096097782
42
0.19891236737965654
10
-28.275000000000002
20
-1.8879942314911304
10
-28.275000000000002
20
6.7379942314911023
42
0.19891236737965515
0
LWPOLYLINE
5
121
100
AcDbEntity
8
0
100
AcDbPolyline
90
8
70
1
43
0.0
10
-3.8087049096097889
20
31.304289321881342
10
-5.2093145750507404
20
32.704898987322323
42
-0.66817863791925391
10
-5.1386038969320786
20
32.875609665440976
10
6.2886038969321074
20
32.875609665440983
42
-0.66817863791927379
10
6.3593145750507656
20
32.704898987322331
10
4.9587049096097662
20
31.304289321881331
42
-0.19891236737965801
10
4.8879942314911231
20
31.274999999999991
10
-3.7379942314911476
20
31.274999999999999
42
-0.19891236737965351
0
ENDSEC
0
SECTION
2
OBJECTS
0
DICTIONARY
5
C
100
AcDbDictionary
3
ACAD_GROUP
350
D
3
ACAD_MLINESTYLE
350
17
0
DICTIONARY
5
D
100
AcDbDictionary
0
DICTIONARY
5
1A
330
C
100
AcDbDictionary
0
DICTIONARY
5
17
100
AcDbDictionary
0
ENDSEC
0
EOF
